# xmcd CD database file generated by Grip 3.0.3
# 
# Track frame offsets:
#       150
#       13829
#       32942
#       54132
#       75090
#       100179
#       116738
#       130507
#       145481
#       164570
#       193283
#       209989
# 
# Disc length: 3033 seconds
# 
# Revision: 1
# Processed by: cddbd v1.4PL0 Copyright (c) Steve Scherf et al.
# Submitted via: Grip 3.0.3
# 
DISCID=aa0bd70c
DTITLE=Various Artist - The Blues Live on! - Disc 2
DYEAR=1900
DGENRE=Blues
TTITLE0=Guitar Slim - The Things I Used to Do
TTITLE1=Little Milton - Woman Across the River
TTITLE2=Etta James - Only Women Bleed
TTITLE3=Albert King - Down the Road I go
TTITLE4=Ernestine Allen - Miss Allen's Blues
TTITLE5=Lightnin Hopkins - My Black Cadillac
TTITLE6=Mose Allison - One Room Country Shack
TTITLE7=Clarence Smith - All Night Long They Play the Blues
TTITLE8=Mildred Anderson - Hard Times
TTITLE9=Eddie Vinson - When My Baby Left Me
TTITLE10=Otis Spann - The Blues Will Never Die
TTITLE11=Muddy Waters - Honey Bee
EXTD=
EXTT0=
EXTT1=
EXTT2=
EXTT3=
EXTT4=
EXTT5=
EXTT6=
EXTT7=
EXTT8=
EXTT9=
EXTT10=
EXTT11=
PLAYORDER=
